<?xml version="1.0" standalone="no"?><!DOCTYPE svg PUBLIC "-//W3C//DTD SVG 1.1//EN" "http://www.w3.org/Graphics/SVG/1.1/DTD/svg11.dtd"><svg t="1612242448254" class="icon" viewBox="0 0 1024 1024" version="1.1" xmlns="http://www.w3.org/2000/svg" p-id="1920" xmlns:xlink="http://www.w3.org/1999/xlink" width="200" height="200"><defs><style type="text/css"></style></defs><path d="M900.042105 706.021053c-21.557895 37.726316-91.621053 48.505263-194.021052 21.557894 10.778947-37.726316 16.168421-80.842105 16.168421-123.957894 37.726316-26.947368 70.063158-48.505263 97.010526-75.452632 70.063158 70.063158 102.4 140.126316 80.842105 177.852632m-366.48421 210.189473c-43.115789 0-86.231579-59.284211-118.568421-156.294737 37.726316-10.778947 75.452632-26.947368 118.568421-48.505263 37.726316 16.168421 80.842105 32.336842 118.568421 48.505263-32.336842 97.010526-75.452632 156.294737-118.568421 156.294737m-366.484211-210.189473c-21.557895-37.726316 5.389474-102.4 80.842105-183.242106 32.336842 26.947368 64.673684 53.894737 97.010527 75.452632 5.389474 43.115789 10.778947 86.231579 16.168421 123.957895-97.010526 26.947368-172.463158 16.168421-194.021053-16.168421m0-425.768421c21.557895-37.726316 91.621053-48.505263 194.021053-21.557895-10.778947 37.726316-16.168421 80.842105-16.168421 123.957895-37.726316 26.947368-70.063158 48.505263-97.010527 75.452631-75.452632-70.063158-102.4-140.126316-80.842105-177.852631m366.484211-210.189474c43.115789 0 86.231579 59.284211 118.568421 156.294737-37.726316 10.778947-75.452632 26.947368-118.568421 48.505263-37.726316-16.168421-80.842105-32.336842-118.568421-48.505263 32.336842-97.010526 75.452632-156.294737 118.568421-156.294737m188.631579 366.48421c26.947368 16.168421 48.505263 37.726316 64.673684 53.894737-21.557895 16.168421-43.115789 37.726316-64.673684 53.894737v-53.894737c0-16.168421 5.389474-32.336842 0-53.894737m-140.126316-134.736842c26.947368-10.778947 53.894737-21.557895 80.842105-26.947368 5.389474 26.947368 10.778947 53.894737 16.168421 86.231579-16.168421-10.778947-32.336842-21.557895-48.505263-26.947369-16.168421-16.168421-32.336842-26.947368-48.505263-32.336842m-194.021053 53.894737c5.389474-32.336842 10.778947-59.284211 16.168421-86.231579 26.947368 5.389474 53.894737 16.168421 80.842106 26.947369-16.168421 10.778947-32.336842 16.168421-48.505264 26.947368l-48.505263 32.336842m-43.115789 194.021053c-26.947368-16.168421-48.505263-37.726316-64.673684-53.894737 21.557895-16.168421 43.115789-37.726316 64.673684-53.894737v53.894737c0 16.168421-5.389474 32.336842 0 53.894737m140.126316 134.736842c-26.947368 10.778947-53.894737 21.557895-80.842106 26.947368-5.389474-26.947368-10.778947-53.894737-16.168421-86.231579 16.168421 10.778947 32.336842 21.557895 48.505263 26.947369 16.168421 16.168421 32.336842 26.947368 48.505264 32.336842m194.021052-53.894737c-5.389474 32.336842-10.778947 59.284211-16.168421 86.231579-26.947368-5.389474-53.894737-16.168421-80.842105-26.947368 16.168421-10.778947 32.336842-16.168421 48.505263-26.947369l48.505263-32.336842m-70.063158-5.389474c-26.947368 16.168421-53.894737 26.947368-75.452631 37.726316-26.947368-10.778947-48.505263-26.947368-75.452632-37.726316-26.947368-16.168421-48.505263-32.336842-75.452631-48.505263 0-26.947368-5.389474-53.894737-5.389474-86.231579s0-59.284211 5.389474-86.231579c21.557895-16.168421 48.505263-32.336842 75.452631-48.505263 26.947368-16.168421 53.894737-26.947368 75.452632-37.726316 26.947368 10.778947 48.505263 26.947368 75.452631 37.726316 26.947368 16.168421 48.505263 32.336842 75.452632 48.505263 0 26.947368 5.389474 53.894737 5.389474 86.231579s0 59.284211-5.389474 86.231579c-21.557895 16.168421-48.505263 32.336842-75.452632 48.505263m291.031579-344.926315c21.557895 37.726316-5.389474 102.4-80.842105 183.242105-32.336842-26.947368-64.673684-53.894737-97.010526-75.452632-5.389474-43.115789-10.778947-86.231579-16.168421-123.957894 97.010526-26.947368 172.463158-16.168421 194.021052 16.168421m-48.505263 215.578947c86.231579-86.231579 134.736842-177.852632 97.010526-242.526316-37.726316-64.673684-140.126316-70.063158-258.694736-37.726316-32.336842-118.568421-86.231579-204.8-161.684211-204.8s-129.347368 86.231579-161.68421 204.8c-118.568421-32.336842-220.968421-32.336842-258.694737 37.726316-37.726316 64.673684 10.778947 156.294737 97.010526 242.526316-86.231579 86.231579-134.736842 177.852632-97.010526 242.526316 37.726316 64.673684 140.126316 70.063158 258.694737 37.726316 32.336842 118.568421 86.231579 204.8 161.68421 204.8s129.347368-86.231579 161.684211-204.8c118.568421 32.336842 220.968421 32.336842 258.694736-37.726316 43.115789-70.063158-5.389474-156.294737-97.010526-242.526316" p-id="1921" fill="#d81e06"></path></svg>